<?xml version="1.0" encoding="UTF-8" standalone="no"?><!DOCTYPE svg PUBLIC "-//W3C//DTD SVG 1.1//EN" "http://www.w3.org/Graphics/SVG/1.1/DTD/svg11.dtd"><svg width="100%" height="100%" viewBox="0 0 50 50" version="1.1" xmlns="http://www.w3.org/2000/svg" xmlns:xlink="http://www.w3.org/1999/xlink" xml:space="preserve" xmlns:serif="http://www.serif.com/" style="fill-rule:evenodd;clip-rule:evenodd;stroke-linejoin:round;stroke-miterlimit:1.41421;"><g id="IconsDense"><g id="TabIcons"><g id="Download"><path d="M16,35l-5.525,0c-4.117,0 -7.475,-3.312 -7.475,-7.406c0,-3.749 2.806,-6.854 6.44,-7.337c0.184,-6.647 5.635,-11.96 12.374,-11.96c5.773,0 10.649,3.933 11.983,9.246c1.15,-0.506 2.392,-0.782 3.703,-0.782c5.083,0 9.2,4.071 9.2,9.108c0,5.037 -4.117,9.108 -9.2,9.108l-7.5,0.023" style="fill:none;stroke:#fff;stroke-width:2px;"/><path d="M24.02,42.48l3.537,-3.576l1.443,1.458c0,0 -4.221,4.395 -5.221,5.335c-0.204,0.191 -0.529,0.303 -0.779,0.303c-0.25,0 -0.531,-0.123 -0.721,-0.302c-1,-0.94 -5.279,-5.336 -5.279,-5.336l1.443,-1.458l3.537,3.576l0.02,-16.48l2.04,0l-0.02,16.48" style="fill:#fff;fill-rule:nonzero;"/></g></g></g></svg>